<?xml version="1.0" encoding="utf-8"?>
<!-- Generator: Adobe Illustrator 16.0.0, SVG Export Plug-In . SVG Version: 6.00 Build 0)  -->
<!DOCTYPE svg PUBLIC "-//W3C//DTD SVG 1.1//EN" "http://www.w3.org/Graphics/SVG/1.1/DTD/svg11.dtd">
<svg version="1.1" id="Layer_1" xmlns="http://www.w3.org/2000/svg" xmlns:xlink="http://www.w3.org/1999/xlink" x="0px" y="0px"
	 width="260px" height="92px" viewBox="0 0 260 92" enable-background="new 0 0 260 92" xml:space="preserve">
<g>
	<polygon fill="#EF4E23" points="34.897,2 0,2 0,8.895 13.13,8.895 13.13,42 21.768,42 21.768,8.895 34.897,8.895 	"/>
	<path fill="#EF4E23" d="M194.243,42h8.261L185.439,2h-0.327h-7.608h-0.328l-17.063,40h8.261l3.996-9.552h17.878L194.243,42z
		 M175.396,25.217l5.911-14.126l5.911,14.126H175.396z"/>
	<polygon fill="#EF4E23" points="152.576,2 148.997,2 144.641,2 134.446,32.771 124.252,2 119.542,2 116.316,2 111.606,2 
		111.606,42 119.542,42 119.542,11.331 130.146,42 131.39,42 137.504,42 138.745,42 148.997,12.352 148.997,42 156.935,42 
		156.935,2 	"/>
	<polygon fill="#EF4E23" points="109.756,2 100.47,2 89.933,17.643 79.93,2 70.645,2 85.882,24.851 85.882,42 94.519,42 
		94.519,24.851 	"/>
	<g>
		<path fill="#EF4E23" d="M69.545,25.404v-7.231H45.891c0.265-5.676,3.505-9.212,9.369-9.212h14.083V2H53.784
			c-9.392,0-17.076,6.253-17.076,17.076v6.428C36.708,34.895,43.812,42,53.204,42h16.139v-6.96H55.84
			c-6.125,0-9.976-2.69-9.976-8.814v-0.821H69.545z"/>
	</g>
</g>
</svg>
